# xmcd
#
# Track frame offsets: 
#        150
#        16006
#        30672
#        58320
#        70190
#        90007
#        111800
#        127627
#        144483
#        159359
#        174135
#        190024
#        206771
#        226179
#        243896
#        258867
#        276868
#        298391
#        322694
#        333645
#
# Disc length: 4685 seconds
#
# Revision: 1
# Processed by: cddbd v1.5.2PL0 Copyright (c) Steve Scherf et al.
# Submitted via: ExactAudioCopy v1.0b4
#
DISCID=05124b14
DTITLE=Various Artist - Blues News - Bluesnews Collection Vol. 7
DYEAR=2012
DGENRE=Blues
TTITLE0=Dave Goodman and Steve Baker - Dave Goodman and Steve Baker - Swee
TTITLE0=t Maybelline
TTITLE1=Back On The Road - Back On The Road - John Lee`s Boogie
TTITLE2=Jan Hirte`s Blue Ribbon feat.Nayell - Jan Hirte`s Blue Ribbon 
TTITLE2=feat.Nayell - I`d Rather Go Blind
TTITLE3=Thomas Schleiken - Thomas Schleiken - Sliding Delta
TTITLE4=Moderate Pace - Moderate Pace - Hip And Run
TTITLE5=Williams Wetsox Trio - Williams Wetsox Trio - Alle Meine Feind
TTITLE6=Thirsty Mamas - Thirsty Mamas - Mercury Blues
TTITLE7=Steppin' Out - Steppin' Out - Catwalk
TTITLE8=The Red Hot Serenaders - The Red Hot Serenaders - Red Hot Sere
TTITLE8=naders Stomp
TTITLE9=Hot 'n' Nasty - Hot 'n' Nasty - Rise Of Anger
TTITLE10=Ralph Brauner - Ralph Brauner - Love You The Most
TTITLE11=BlueTransfusion - BlueTransfusion - Disappear
TTITLE12=Uffgschdummbd - Uffgschdummbd - Wer Hot Moi Bier Umgekippt
TTITLE13=Titus Jackman Band - Titus Jackman Band - Desperate
TTITLE14=Hotte Miller - Hotte Miller - Stupid Man
TTITLE15=White Room Blues Band - White Room Blues Band - White Room
TTITLE16=Schwarzbrenner - Schwarzbrenner - Die Dämonen Der Städte
TTITLE17=Blues Lick - Blues Lick - Lassts Mi In Ruah
TTITLE18=The Transonic Ford - The Transonic Ford - I Won`t Run
TTITLE19=Dirk Galperin - Dirk Galperin - Continental Rag
EXTD=YEAR: 2012
EXTT0=
EXTT1=
EXTT2=
EXTT3=
EXTT4=
EXTT5=
EXTT6=
EXTT7=
EXTT8=
EXTT9=
EXTT10=
EXTT11=
EXTT12=
EXTT13=
EXTT14=
EXTT15=
EXTT16=
EXTT17=
EXTT18=
EXTT19=
PLAYORDER=
